<svg width="1000" height="1000" viewBox="0 0 1000 1000" fill="none" xmlns="http://www.w3.org/2000/svg">
<path d="M376.094 229C425.884 229 473.634 248.779 508.841 283.986C529.86 305.004 545.38 330.494 554.475 358.219C556.314 363.823 557.889 369.518 559.195 375.286C560.237 379.886 561.107 384.534 561.8 389.218C562.568 394.401 563.121 399.63 563.454 404.891C563.702 408.822 563.827 429.838 563.827 433.8V442.856L476.527 402.105L457.37 393.049C453.618 378.609 446.56 367.727 435.83 356.997C419.987 341.154 398.499 332.253 376.094 332.253C353.688 332.253 332.2 341.154 316.357 356.997C300.514 372.84 291.614 394.328 291.614 416.733L290.064 478.382C290.064 478.382 290.987 485.403 291.743 489.876C292.983 497.216 293.931 501.314 295.598 508.518L295.636 508.684C297.25 515.659 297.849 520.178 297.849 520.178L202.415 560.581L199.854 550.48C198.05 543.863 196.011 534.807 194.281 526.448C192.191 516.347 189.753 505.201 189.405 493.708C188.052 482.272 188.709 470.371 188.36 459.226C188.36 454.279 188.36 449.465 188.36 444.783C188.36 441.884 188.36 439.036 188.36 436.238C188.36 431.014 189.519 395.766 189.816 393.397C190.744 385.986 192.111 378.659 193.902 371.454C195.846 363.633 198.289 355.955 201.212 348.467C203.623 342.292 206.36 336.246 209.412 330.355C212.063 325.24 214.951 320.242 218.071 315.378C225.289 304.123 233.744 293.588 243.346 283.986C278.553 248.779 326.304 229 376.094 229Z" fill="url(#paint0_linear_504_386)"/>
<path d="M811.12 416.733C811.12 366.943 791.341 319.193 756.134 283.986C720.927 248.779 673.176 229 623.386 229C575.25 229 550.853 231.039 517.278 263.133C528.075 272.189 545.595 294.698 549.67 300.401C551.695 303.237 564.646 327.377 565.691 330.703C569.871 340.108 573.354 347.77 573.354 347.77C589.376 334.535 600.981 332.253 623.386 332.253C645.792 332.253 667.28 341.154 683.123 356.997C698.966 372.84 707.866 394.328 707.866 416.733V486.393L706.978 492.663C706.978 492.663 705.358 500.494 704.54 505.55C704.314 506.943 704.314 507.291 703.966 508.336L798.007 552.222L798.929 549.435L801.715 539.683L803.457 532.369L805.895 522.965L809.726 500.674L810.771 492.663L811.12 486.393V416.733Z" fill="url(#paint1_linear_504_386)"/>
<path d="M750.638 646.959C728.347 676.913 731.675 671.253 700.038 697.552C668.402 723.851 631.831 743.738 592.414 756.076C552.997 768.414 526.658 773.759 485.462 770.257L487.9 717.664L490.338 668.902C518.075 671.26 534.802 667.512 561.341 659.205C587.879 650.898 612.502 637.509 633.803 619.802C636.918 617.212 639.954 614.537 642.906 611.781L646.193 608.646C647.254 607.612 650.683 603.781 651.721 602.725C653.463 603.77 728.347 641.038 730.089 641.735C731.83 642.431 737.403 644.521 742.279 645.566C747.504 646.685 748.549 646.959 750.638 646.959Z" fill="url(#paint2_linear_504_386)"/>
<path d="M355.321 612.477C349.051 615.612 345.22 616.486 333.726 622.23C326.76 625.308 288.447 642.78 279.043 647.307C269.988 651.139 268.246 651.835 262.551 653.577C255.023 655.879 255.359 655.318 255.359 655.318C255.359 655.318 256.539 656.908 262.551 663.733C268.647 670.654 275.072 677.33 281.814 683.736C285.976 687.692 290.239 691.524 294.594 695.231C305.106 704.177 316.163 712.39 327.683 719.836C374.523 750.114 429.011 767.709 485.635 770.279L490.356 668.804C438.963 666.471 394.838 650.148 357.759 614.916C354.63 611.943 355.321 612.477 355.321 612.477Z" fill="url(#paint3_linear_504_386)"/>
<path d="M424.282 489.528L494.987 525.055L266.823 629.556C237.835 642.833 203.565 630.227 190.09 601.331V601.331C187.31 595.369 190.037 588.292 196.098 585.736L424.282 489.528Z" fill="url(#paint4_diamond_504_386)"/>
<path d="M435.775 472.28L453.069 414.399L805.598 578.786C811.288 581.439 813.75 588.203 811.096 593.892V593.892C797.593 622.852 762.878 634.992 734.269 620.761L435.775 472.28Z" fill="#FF1856"/>
<defs>
<linearGradient id="paint0_linear_504_386" x1="502.875" y1="421.261" x2="358.33" y2="735.427" gradientUnits="userSpaceOnUse">
<stop offset="0.078125" stop-color="#02FFC6"/>
<stop offset="0.927083" stop-color="#027DFE"/>
</linearGradient>
<linearGradient id="paint1_linear_504_386" x1="501.133" y1="415.34" x2="661.351" y2="741.348" gradientUnits="userSpaceOnUse">
<stop offset="0.078125" stop-color="#FF1755"/>
<stop offset="0.927083" stop-color="#1F6FEB"/>
</linearGradient>
<linearGradient id="paint2_linear_504_386" x1="269.067" y1="606.441" x2="713.404" y2="634.023" gradientUnits="userSpaceOnUse">
<stop offset="0.078125" stop-color="#039EF1"/>
<stop offset="0.53125" stop-color="#3865DB"/>
<stop offset="0.927083" stop-color="#734FB4"/>
</linearGradient>
<linearGradient id="paint3_linear_504_386" x1="269.067" y1="606.441" x2="713.404" y2="634.023" gradientUnits="userSpaceOnUse">
<stop offset="0.078125" stop-color="#039EF1"/>
<stop offset="0.53125" stop-color="#3865DB"/>
<stop offset="0.927083" stop-color="#734FB4"/>
</linearGradient>
<radialGradient id="paint4_diamond_504_386" cx="0" cy="0" r="1" gradientUnits="userSpaceOnUse" gradientTransform="translate(209.955 618.051) rotate(-23.51) scale(277.655 64.3195)">
<stop stop-color="#01FFC5"/>
<stop offset="0.927083" stop-color="#02FFC6"/>
</radialGradient>
</defs>
</svg>
