<svg width="362" height="314" viewBox="0 0 362 314" fill="none" xmlns="http://www.w3.org/2000/svg">
<g filter="url(#filter0_d_100_15)">
<path d="M109.607 0.0869942C138.126 0.0869963 165.477 11.4161 185.643 31.582C197.682 43.6211 206.571 58.221 211.781 74.1015C212.834 77.3112 213.737 80.5732 214.485 83.877C215.081 86.5122 215.579 89.174 215.977 91.857C216.417 94.826 216.733 97.8209 216.924 100.834C217.066 103.086 217.138 115.124 217.138 117.393V122.58L167.133 99.2385L156.161 94.0515C154.011 85.7803 149.969 79.5476 143.823 73.4015C134.748 64.3269 122.441 59.2288 109.607 59.2288C96.7736 59.2288 84.4657 64.3269 75.3911 73.4015C66.3164 82.4761 61.2184 94.784 61.2183 107.617L60.3305 142.929C60.3305 142.929 60.8597 146.95 61.2924 149.513C62.0025 153.716 62.5457 156.064 63.5004 160.19L63.5225 160.285C64.4469 164.28 64.79 166.869 64.79 166.869L10.127 190.011L8.65984 184.225C7.62663 180.435 6.45873 175.248 5.46798 170.46C4.27083 164.675 2.87448 158.291 2.67509 151.707C1.90015 145.157 2.27612 138.341 2.07662 131.957C2.07653 129.123 2.07654 126.365 2.07655 123.684C2.07655 122.023 2.07656 120.392 2.07654 118.79C2.07663 115.797 2.74022 95.6078 2.91015 94.251C3.44187 90.0059 4.22494 85.8094 5.25069 81.6825C6.36419 77.2025 7.76366 72.8046 9.438 68.5155C10.8187 64.9785 12.3864 61.5155 14.1348 58.1415C15.653 55.2116 17.3076 52.3488 19.0943 49.563C23.229 43.1162 28.0716 37.0819 33.5715 31.5819C53.7374 11.4161 81.0882 0.086992 109.607 0.0869942Z" fill="url(#paint0_linear_100_15)"/>
<path d="M358.783 107.617C358.783 79.0986 347.454 51.7478 327.288 31.582C307.122 11.4161 279.771 0.0869963 251.252 0.0869942C223.68 0.0869921 209.706 1.25513 190.475 19.638C196.66 24.825 206.695 37.7175 209.029 40.9845C210.189 42.6086 217.607 56.4358 218.206 58.341C220.6 63.7275 222.595 68.1165 222.595 68.1165C231.772 60.5355 238.419 59.2288 251.252 59.2288C264.086 59.2288 276.394 64.3269 285.468 73.4015C294.543 82.4761 299.641 94.784 299.641 107.617V147.517L299.132 151.108C299.132 151.108 298.204 155.594 297.736 158.49C297.607 159.288 297.607 159.487 297.407 160.086L351.272 185.223L351.8 183.627L353.396 178.041L354.394 173.851L355.79 168.465L357.985 155.697L358.583 151.108L358.783 147.517V107.617Z" fill="url(#paint1_linear_100_15)"/>
<path d="M324.14 239.487C311.372 256.644 313.278 253.402 295.157 268.466C277.036 283.53 256.089 294.92 233.512 301.987C210.934 309.054 195.848 312.116 172.252 310.11L173.648 279.985L175.045 252.055C190.932 253.406 200.512 251.259 215.713 246.501C230.914 241.743 245.018 234.074 257.218 223.932C259.003 222.448 260.742 220.916 262.433 219.337L264.315 217.542C264.923 216.949 266.887 214.755 267.482 214.15C268.479 214.749 311.372 236.095 312.369 236.494C313.367 236.893 316.559 238.09 319.352 238.689C322.344 239.33 322.943 239.487 324.14 239.487Z" fill="url(#paint2_linear_100_15)"/>
<path d="M97.7088 219.736C94.1178 221.532 91.9233 222.033 85.3398 225.322C81.3498 227.086 59.4048 237.093 54.0183 239.686C48.8313 241.881 47.8338 242.28 44.5716 243.277C40.2598 244.596 40.4523 244.275 40.4523 244.275C40.4523 244.275 41.128 245.185 44.5716 249.095C48.0635 253.059 51.7435 256.883 55.605 260.552C57.9894 262.818 60.4307 265.013 62.9256 267.136C68.9468 272.26 75.2799 276.965 81.8781 281.23C108.707 298.572 139.917 308.65 172.351 310.123L175.055 251.999C145.617 250.663 120.343 241.313 99.1053 221.133C97.3133 219.43 97.7088 219.736 97.7088 219.736Z" fill="url(#paint3_linear_100_15)"/>
<path d="M137.208 149.313L177.707 169.662L47.0187 229.519C30.4147 237.124 10.7855 229.903 3.06739 213.351C1.47518 209.937 3.03694 205.883 6.5085 204.419L137.208 149.313Z" fill="url(#paint4_linear_100_15)"/>
<path d="M143.037 139.385L153.221 105.635L355.034 199.741C358.354 201.29 359.791 205.237 358.242 208.557C350.359 225.462 330.091 232.545 313.394 224.23L143.037 139.385Z" fill="url(#paint5_linear_100_15)"/>
</g>
<defs>
<filter id="filter0_d_100_15" x="0.480538" y="0.0869942" width="359.981" height="313.819" filterUnits="userSpaceOnUse" color-interpolation-filters="sRGB">
<feFlood flood-opacity="0" result="BackgroundImageFix"/>
<feColorMatrix in="SourceAlpha" type="matrix" values="0 0 0 0 0 0 0 0 0 0 0 0 0 0 0 0 0 0 127 0" result="hardAlpha"/>
<feOffset dy="1.596"/>
<feGaussianBlur stdDeviation="0.798"/>
<feComposite in2="hardAlpha" operator="out"/>
<feColorMatrix type="matrix" values="0 0 0 0 0 0 0 0 0 0 0 0 0 0 0 0 0 0 0.25 0"/>
<feBlend mode="normal" in2="BackgroundImageFix" result="effect1_dropShadow_100_15"/>
<feBlend mode="normal" in="SourceGraphic" in2="effect1_dropShadow_100_15" result="shape"/>
</filter>
<linearGradient id="paint0_linear_100_15" x1="8.02984" y1="4.27347" x2="201.602" y2="8.90486" gradientUnits="userSpaceOnUse">
<stop offset="0.078125" stop-color="white"/>
</linearGradient>
<linearGradient id="paint1_linear_100_15" x1="195.134" y1="4.16793" x2="346.656" y2="7.07847" gradientUnits="userSpaceOnUse">
<stop offset="0.078125" stop-color="white"/>
</linearGradient>
<linearGradient id="paint2_linear_100_15" x1="48.3041" y1="216.279" x2="302.813" y2="232.078" gradientUnits="userSpaceOnUse">
<stop offset="0.078125" stop-color="white"/>
</linearGradient>
<linearGradient id="paint3_linear_100_15" x1="48.3041" y1="216.279" x2="302.813" y2="232.078" gradientUnits="userSpaceOnUse">
<stop offset="0.078125" stop-color="white"/>
</linearGradient>
<linearGradient id="paint4_linear_100_15" x1="157.284" y1="135.083" x2="172.765" y2="168.712" gradientUnits="userSpaceOnUse">
<stop offset="0.078125" stop-color="white"/>
</linearGradient>
<linearGradient id="paint5_linear_100_15" x1="141.091" y1="143.608" x2="156.694" y2="110.473" gradientUnits="userSpaceOnUse">
<stop offset="0.078125" stop-color="white"/>
</linearGradient>
</defs>
</svg>
