<?xml version="1.0" encoding="UTF-8" standalone="no"?>
<!DOCTYPE svg PUBLIC "-//W3C//DTD SVG 1.1//EN" "http://www.w3.org/Graphics/SVG/1.1/DTD/svg11.dtd">
<svg version="1.1" xmlns="http://www.w3.org/2000/svg" xmlns:xlink="http://www.w3.org/1999/xlink" preserveAspectRatio="xMidYMid meet" viewBox="0 0 640 640" width="640" height="640"><defs><path d="M640 0C640 0 640 0 640 0C640 384 640 597.33 640 640C640 640 640 640 640 640C256 640 42.67 640 0 640C0 640 0 640 0 640C0 256 0 42.67 0 0C0 0 0 0 0 0C384 0 597.33 0 640 0Z" id="b12zFt46d"></path><path d="M204.05 571.07C439.9 571.07 568.9 375.67 568.9 206.23C568.9 200.68 568.9 195.16 568.53 189.66C593.62 171.5 615.28 149.03 632.5 123.28C609.1 133.65 584.27 140.45 558.85 143.46C585.62 127.43 605.65 102.23 615.23 72.53C590.05 87.47 562.52 98 533.8 103.66C485.24 52.02 404.01 49.53 352.37 98.09C319.07 129.41 304.94 176.07 315.28 220.6C212.17 215.44 116.11 166.74 51 86.63C16.97 145.22 34.35 220.18 90.7 257.8C70.29 257.2 50.33 251.69 32.5 241.75C32.5 242.28 32.5 242.83 32.5 243.38C32.52 304.42 75.54 356.99 135.37 369.07C116.5 374.22 96.69 374.98 77.47 371.27C94.27 423.51 142.41 459.29 197.27 460.32C151.87 496.01 95.78 515.38 38.02 515.32C27.82 515.3 17.63 514.68 7.5 513.47C66.14 551.1 134.37 571.06 204.05 570.97" id="a41h9ZT2BH"></path></defs><g><g><g><use xlink:href="#b12zFt46d" opacity="1" fill="#000000" fill-opacity="0"></use><g><use xlink:href="#b12zFt46d" opacity="1" fill-opacity="0" stroke="#000000" stroke-width="1" stroke-opacity="0"></use></g></g><g><use xlink:href="#a41h9ZT2BH" opacity="1" fill="#1da1f2" fill-opacity="1"></use><g><use xlink:href="#a41h9ZT2BH" opacity="1" fill-opacity="0" stroke="#000000" stroke-width="1" stroke-opacity="0"></use></g></g></g></g></svg>